# xmcd CD database file
#
# Track frame offsets:
#	150
#	13765
#	33945
#	50820
#	63480
#	78357
#	98190
#	109405
#	127416
#	148847
#	165750
#	184575
#	196547
#	213129
#	227919
#	245872
#	263048
#	280409
#
# Disc length: 4068 seconds
#
# Revision: 9
# Processed by: cddbd v1.5.2PL0 Copyright (c) Steve Scherf et al.
# Submitted via: CDex 1.81
#
DISCID=070fe212
DTITLE=Mamma Mia Cast - Mamma Mia! Here We Go Again - The Movie Soundtrack
DYEAR=2018
DGENRE=Soundtrack
TTITLE0=When I Kissed The Teacher
TTITLE1=I Wonder (Departure)
TTITLE2=One Of Us
TTITLE3=Waterloo
TTITLE4=Why Did It Have To Be Me
TTITLE5=I Have A Dream
TTITLE6=Kisses Of Fire
TTITLE7=Andante, Andante
TTITLE8=The Name Of The Game
TTITLE9=Knowing Me, Knowing You
TTITLE10=Angel Eyes
TTITLE11=Mamma Mia
TTITLE12=Dancing Queen
TTITLE13=I've Been Waiting For You
TTITLE14=Fernando
TTITLE15=My Love, My Life
TTITLE16=Super Trouper
TTITLE17=The Day Before You Came
EXTD=\n\nMARO\n YEAR: 2018
EXTT0=
EXTT1=
EXTT2=
EXTT3=
EXTT4=
EXTT5=
EXTT6=
EXTT7=
EXTT8=
EXTT9=
EXTT10=
EXTT11=
EXTT12=
EXTT13=
EXTT14=
EXTT15=
EXTT16=
EXTT17=
PLAYORDER=
